
        <svg xmlns="http://www.w3.org/2000/svg" xmlns:xlink="http://www.w3.org/1999/xlink" version="1.1" width="3200" height="1467.5180250940757" viewBox="0 0 3200 1467.5180250940757">
			
			<g transform="scale(10) translate(10, 10)">
				<defs id="SvgjsDefs1054"/><g id="SvgjsG1055" featureKey="X3o6dM-0" transform="matrix(7.93080952783854,0,0,7.93080952783854,-4.733442511987752,-59.4810638953797)" fill="#000"><path d="M3.38 9.92 q-0.52 0.04 -1.06 0.08 t-1.14 0.04 q-0.34 0 -0.48 -0.16 t-0.09 -0.35 t0.29 -0.36 t0.68 -0.19 q0.6 -0.08 1.19 -0.24 t1.19 -0.32 t1.21 -0.28 t1.21 -0.12 q0.22 0 0.49 0.07 t0.5 0.22 t0.38 0.37 t0.15 0.5 q0 0.16 -0.17 0.25 t-0.56 0.14 t-1 0.1 t-1.49 0.15 q0.24 0.28 0.35 0.72 t0.16 0.92 t0.04 0.94 t-0.01 0.78 q0 0.74 0.01 1.51 t-0.06 1.55 t-0.24 1.54 t-0.53 1.46 q0.9 -0.12 1.43 -0.18 t0.84 -0.1 t0.45 -0.05 t0.24 -0.01 q0.32 0 0.52 0.11 t0.1 0.37 q-0.06 0.16 -0.62 0.4 t-1.36 0.47 t-1.71 0.38 t-1.69 0.16 t-1.29 -0.19 t-0.51 -0.7 q0 -0.12 0.14 -0.2 t0.46 -0.13 t0.84 -0.1 t1.3 -0.15 q-0.04 -1.1 -0.05 -2.2 t-0.03 -2.24 t-0.03 -2.37 t-0.05 -2.59 z M9 16.740000000000002 q-0.04 0.16 -0.17 0.23 t-0.27 0.04 t-0.22 -0.14 t0 -0.29 l0.12 -0.34 q-0.18 -0.18 -0.2 -0.42 t0.08 -0.45 t0.29 -0.36 t0.43 -0.15 q0.42 0 0.46 0.31 t-0.12 0.69 q0.12 0.06 0.39 0.02 t0.51 -0.05 t0.4 0.09 t0.08 0.46 t-0.17 0.86 t-0.13 0.95 t0 0.77 t0.22 0.32 q0.12 0 0.31 -0.35 t0.39 -0.81 t0.36 -0.93 t0.2 -0.71 q0.04 -0.2 0.17 -0.28 t0.27 -0.07 t0.23 0.12 t0.07 0.31 q-0.02 0.1 -0.1 0.43 t-0.22 0.74 t-0.34 0.86 t-0.48 0.83 t-0.62 0.61 t-0.76 0.21 q-0.48 -0.02 -0.7 -0.43 t-0.28 -0.98 t0.03 -1.21 t0.25 -1.12 q-0.1 0.02 -0.2 0.02 l-0.2 0 q-0.06 0.1 -0.08 0.22 z M11.98 15.84 q0 -0.48 0.25 -0.66 t0.55 -0.14 t0.52 0.26 t0.16 0.54 q-0.08 0.36 -0.15 0.9 t-0.09 1.04 t0.03 0.86 t0.23 0.36 q0.12 0 0.29 -0.31 t0.33 -0.73 t0.3 -0.84 t0.18 -0.64 q0.06 -0.2 0.2 -0.27 t0.27 -0.04 t0.22 0.15 t0.03 0.3 q-0.04 0.12 -0.13 0.45 t-0.23 0.73 t-0.33 0.83 t-0.44 0.76 t-0.55 0.51 t-0.66 0.08 q-0.54 -0.16 -0.77 -0.59 t-0.27 -1 t0.01 -1.24 t0.05 -1.31 z M14.260000000000002 13.1 q0.04 0.22 -0.05 0.41 t-0.27 0.34 t-0.42 0.25 t-0.5 0.14 q-0.5 0.06 -0.98 -0.1 t-0.54 -0.58 q-0.08 -0.44 0.27 -0.75 t0.93 -0.41 t1.04 0.09 t0.52 0.61 z M17.64 14.76 q0.26 -0.14 0.52 0 t0.4 0.39 t0.09 0.52 t-0.41 0.37 q-0.32 0.08 -0.67 0.16 t-0.66 0.14 t-0.53 0.11 t-0.28 0.05 q0.04 0 0.43 0.11 t0.83 0.36 t0.8 0.67 t0.36 1.06 q0 0.7 -0.48 1.11 t-1.12 0.55 q-0.4 0.06 -0.77 0 t-0.66 -0.25 t-0.47 -0.52 t-0.18 -0.79 q0 -0.38 0.25 -0.6 t0.54 -0.28 t0.52 0.06 t0.19 0.42 q-0.1 0.62 0.06 0.9 t0.32 0.28 q0.2 0 0.33 -0.14 t0.15 -0.37 t-0.08 -0.52 t-0.32 -0.59 q-0.18 -0.26 -0.45 -0.47 t-0.54 -0.36 t-0.53 -0.24 t-0.42 -0.13 q-0.18 -0.04 -0.27 -0.25 t-0.08 -0.44 t0.16 -0.42 t0.45 -0.19 q0.6 0 1.29 -0.19 t1.23 -0.51 z M32.440000000000005 18.08 q0 -0.24 -0.01 -0.55 t-0.03 -0.67 q-2.4 0.1 -4.78 0.16 t-4.8 0.1 q-0.1 0.74 -0.15 1.49 t-0.11 1.49 q-0.04 0.54 -0.22 0.54 q-0.12 0 -0.26 -0.15 t-0.26 -0.36 t-0.22 -0.42 t-0.14 -0.33 q-0.14 -0.4 -0.23 -0.82 t-0.09 -0.86 l0 -0.28 t0.04 -0.3 l-0.7 0 q-0.1 0 -0.27 -0.02 t-0.34 -0.07 t-0.3 -0.12 t-0.13 -0.17 t0.12 -0.18 t0.3 -0.13 t0.4 -0.08 t0.4 -0.03 l0.7 0 q0.16 -0.78 0.43 -1.75 t0.68 -1.95 t0.95 -1.9 t1.24 -1.64 t1.56 -1.15 t1.9 -0.43 q1 0 1.79 0.38 t1.37 1.02 t0.98 1.47 t0.66 1.73 t0.38 1.82 t0.14 1.72 q0.34 0.1 0.63 0.29 t0.29 0.53 q0 0.14 -0.1 0.22 t-0.25 0.12 t-0.32 0.05 t-0.31 0.01 q-0.04 0.42 -0.12 1.05 t-0.21 1.22 t-0.3 1.01 t-0.37 0.42 q-0.08 0 -0.08 -0.22 q0 -0.58 0.07 -1.13 t0.07 -1.13 z M25.720000000000002 10.16 q-1.3 1.34 -1.92 2.87 t-0.88 3.17 q1.16 -0.1 2.33 -0.25 t2.34 -0.27 t2.34 -0.19 t2.35 -0.01 q-0.12 -1.08 -0.38 -2.23 t-0.74 -2.1 t-1.21 -1.57 t-1.77 -0.62 q-0.68 0 -1.31 0.33 t-1.15 0.87 z M35.080000000000005 15.84 q0 -0.48 0.25 -0.66 t0.55 -0.14 t0.52 0.26 t0.16 0.54 q-0.08 0.36 -0.15 0.9 t-0.09 1.04 t0.03 0.86 t0.23 0.36 q0.12 0 0.29 -0.31 t0.33 -0.73 t0.3 -0.84 t0.18 -0.64 q0.06 -0.2 0.2 -0.27 t0.27 -0.04 t0.22 0.15 t0.03 0.3 q-0.04 0.12 -0.13 0.45 t-0.23 0.73 t-0.33 0.83 t-0.44 0.76 t-0.55 0.51 t-0.66 0.08 q-0.54 -0.16 -0.77 -0.59 t-0.27 -1 t0.01 -1.24 t0.05 -1.31 z M37.36 13.1 q0.04 0.22 -0.05 0.41 t-0.27 0.34 t-0.42 0.25 t-0.5 0.14 q-0.5 0.06 -0.98 -0.1 t-0.54 -0.58 q-0.08 -0.44 0.27 -0.75 t0.93 -0.41 t1.04 0.09 t0.52 0.61 z"/></g><g id="SvgjsG1056" featureKey="RFbU7s-0" transform="matrix(0.8082395144593858,0,0,0.8082395144593858,5.676703924437202,110.34454098251986)" fill="#000"><path d="M12.42 20 l-1.16 -2.7 l-6.92 0 l-1.16 2.7 l-2.78 0 l6.24 -14 l2.34 0 l6.22 14 l-2.78 0 z M5.26 15.16 l5.08 0 l-2.54 -5.92 z M20.7175 6 l0 14 l-2.62 0 l0 -14 l2.62 0 z M36.5325 6 c3.14 0 5.12 1.92 5.12 4.7 s-1.98 4.54 -5.12 4.54 l-2.2 0 l0 4.76 l-2.62 0 l0 -14 l4.82 0 z M36.392500000000005 12.98 c1.58 0 2.64 -0.68 2.64 -2.28 c0 -1.58 -1.06 -2.28 -2.64 -2.28 l-2.06 0 l0 4.56 l2.06 0 z M47.470000000000006 17.58 l6.1 0 l0 2.42 l-6.5 0 l-2.22 0 l0 -14 l2.62 0 l5.92 0 l0 2.42 l-5.92 0 l0 3.36 l4.5 0 l0 2.36 l-4.5 0 l0 3.44 z M66.26750000000001 6 l2.62 0 l0 14 l-2 0 l-7.3 -9.22 l0 9.22 l-2.62 0 l0 -14 l2.02 0 l7.28 9.24 l0 -9.24 z M81.985 6 l0 2.42 l-3.6 0 l0 11.58 l-2.62 0 l0 -11.58 l-3.58 0 l0 -2.42 l9.8 0 z M96.1225 20 l-2.78 0 l-3.12 -4.76 l-0.12 0 l-2.2 0 l0 4.76 l-2.62 0 l0 -14 l4.82 0 c3.14 0 5.12 1.92 5.12 4.7 c0 1.94 -0.96 3.38 -2.6 4.08 z M87.9025 8.42 l0 4.56 l2.06 0 c1.58 0 2.64 -0.68 2.64 -2.28 c0 -1.58 -1.06 -2.28 -2.64 -2.28 l-2.06 0 z M107.26 6 l2.62 0 l0 8.92 c0 3.4 -2.42 5.38 -5.32 5.38 c-2.92 0 -5.34 -1.98 -5.34 -5.38 l0 -8.92 l2.62 0 l0 8.92 c0 2.2 1.4 2.92 2.72 2.92 s2.7 -0.72 2.7 -2.92 l0 -8.92 z M125.39500000000001 5.76 c2.38 0 3.96 1.52 4.66 2.9 l-1.94 1.14 c-0.74 -1.1 -1.54 -1.72 -2.72 -1.72 c-1.12 0 -1.92 0.66 -1.92 1.56 c0 0.86 0.52 1.36 1.72 1.8 l0.96 0.36 c2.98 1.06 4.28 2.36 4.28 4.36 c0 2.72 -2.58 4.14 -4.96 4.14 c-2.5 0 -4.46 -1.48 -5.1 -3.44 l2.02 -1.06 c0.5 1.12 1.44 2.12 3.08 2.12 c1.24 0 2.24 -0.6 2.24 -1.72 c0 -1.14 -0.72 -1.64 -2.28 -2.22 l-0.9 -0.32 c-2.08 -0.76 -3.66 -1.8 -3.66 -4.12 c0 -2.2 2.02 -3.78 4.52 -3.78 z M142.2525 6 l2.62 0 l0 14 l-2.62 0 l0 -5.76 l-6 0 l0 5.76 l-2.62 0 l0 -14 l2.62 0 l0 5.82 l6 0 l0 -5.82 z M155.51 5.800000000000001 c3.84 0 7.24 2.96 7.24 7.2 s-3.4 7.2 -7.24 7.2 s-7.24 -2.96 -7.24 -7.2 s3.4 -7.2 7.24 -7.2 z M155.51 17.740000000000002 c2.44 0 4.5 -1.98 4.5 -4.74 s-2.06 -4.74 -4.5 -4.74 c-2.46 0 -4.52 1.98 -4.52 4.74 s2.06 4.74 4.52 4.74 z M170.9675 6 c3.14 0 5.12 1.92 5.12 4.7 s-1.98 4.54 -5.12 4.54 l-2.2 0 l0 4.76 l-2.62 0 l0 -14 l4.82 0 z M170.8275 12.98 c1.58 0 2.64 -0.68 2.64 -2.28 c0 -1.58 -1.06 -2.28 -2.64 -2.28 l-2.06 0 l0 4.56 l2.06 0 z M184.105 6 c3.14 0 5.12 1.92 5.12 4.7 s-1.98 4.54 -5.12 4.54 l-2.2 0 l0 4.76 l-2.62 0 l0 -14 l4.82 0 z M183.96499999999997 12.98 c1.58 0 2.64 -0.68 2.64 -2.28 c0 -1.58 -1.06 -2.28 -2.64 -2.28 l-2.06 0 l0 4.56 l2.06 0 z M195.04249999999996 6 l0 14 l-2.62 0 l0 -14 l2.62 0 z M208.03999999999996 6 l2.62 0 l0 14 l-2 0 l-7.3 -9.22 l0 9.22 l-2.62 0 l0 -14 l2.02 0 l7.28 9.24 l0 -9.24 z M227.55749999999998 12.64 c0.54 4.66 -2.52 7.56 -6.26 7.56 c-3.92 0 -7.24 -2.96 -7.24 -7.2 s3.4 -7.2 7.24 -7.2 c1.82 0 3.46 0.6 4.68 1.66 l-1.58 1.8 c-0.8 -0.6 -1.86 -1 -2.94 -1 c-2.62 0 -4.68 1.98 -4.68 4.74 s2 4.74 4.52 4.74 c2 0 3.42 -0.8 3.84 -2.86 l-3.48 0 l0 -2.24 l5.9 0 z M240.91249999999997 6 l0 14 l-2.62 0 l0 -14 l2.62 0 z M253.90999999999997 6 l2.62 0 l0 14 l-2 0 l-7.3 -9.22 l0 9.22 l-2.62 0 l0 -14 l2.02 0 l7.28 9.24 l0 -9.24 z M269.6275 6 l0 2.42 l-3.6 0 l0 11.58 l-2.62 0 l0 -11.58 l-3.58 0 l0 -2.42 l9.8 0 z M275.54499999999996 17.58 l6.1 0 l0 2.42 l-6.5 0 l-2.22 0 l0 -14 l2.62 0 l5.92 0 l0 2.42 l-5.92 0 l0 3.36 l4.5 0 l0 2.36 l-4.5 0 l0 3.44 z M287.66249999999997 17.58 l5.68 0 l0 2.42 l-8.3 0 l0 -14 l2.62 0 l0 11.58 z M299.26 6 l0 14 l-2.62 0 l0 -14 l2.62 0 z M316.15749999999997 12.64 c0.54 4.66 -2.52 7.56 -6.26 7.56 c-3.92 0 -7.24 -2.96 -7.24 -7.2 s3.4 -7.2 7.24 -7.2 c1.82 0 3.46 0.6 4.68 1.66 l-1.58 1.8 c-0.8 -0.6 -1.86 -1 -2.94 -1 c-2.62 0 -4.68 1.98 -4.68 4.74 s2 4.74 4.52 4.74 c2 0 3.42 -0.8 3.84 -2.86 l-3.48 0 l0 -2.24 l5.9 0 z M322.215 17.58 l6.1 0 l0 2.42 l-6.5 0 l-2.22 0 l0 -14 l2.62 0 l5.92 0 l0 2.42 l-5.92 0 l0 3.36 l4.5 0 l0 2.36 l-4.5 0 l0 3.44 z M341.0125 6 l2.62 0 l0 14 l-2 0 l-7.3 -9.22 l0 9.22 l-2.62 0 l0 -14 l2.02 0 l7.28 9.24 l0 -9.24 z M356.73 6 l0 2.42 l-3.6 0 l0 11.58 l-2.62 0 l0 -11.58 l-3.58 0 l0 -2.42 l9.8 0 z"/></g>
			</g>
		</svg>
	